<?xml version="1.0" encoding="utf-8" ?><svg xmlns="http://www.w3.org/2000/svg" xmlns:xlink="http://www.w3.org/1999/xlink" width="1024" height="1024" viewBox="0 0 1024 1024"><path fill="#5A697B" transform="scale(2 2)" d="M285.966 295.065C292.518 290.133 300.425 285.995 307.391 281.547C335.745 263.258 367.438 244.273 396.969 227.603C404.056 223.603 410.637 218.471 418.007 214.661C425.082 219.908 433.166 224.685 440.221 229.822C440.514 231.607 440.244 237.198 440.232 239.447L440.221 340.238C436.891 342.568 433.051 344.731 429.567 346.905L317.017 415.945C311.126 419.583 305.306 423.363 299.319 426.845C294.842 429.135 279.961 417.587 275.245 414.721C270.495 411.834 272.264 397.082 272.263 391.656L272.271 354.341C272.535 353.202 272.325 344.902 272.271 343.52C272.475 332.918 270.845 314.611 272.271 305.114C274.694 302.089 275.225 302.757 277.597 300.775C276.891 295.11 277.6 288.972 277.597 283.249C278.937 283.022 283.92 279.285 285.271 278.277L285.966 278.277C286.278 281.548 285.975 291.362 285.966 295.065Z"/><path fill="#83858C" transform="scale(2 2)" d="M285.966 295.065C292.518 290.133 300.425 285.995 307.391 281.547C335.745 263.258 367.438 244.273 396.969 227.603C404.056 223.603 410.637 218.471 418.007 214.661C425.082 219.908 433.166 224.685 440.221 229.822C430.925 232.854 409.082 249.006 399.526 254.902L326.34 299.578C321.013 302.83 302.145 313.269 298.969 318.131C298.675 318.564 298.746 318.456 298.342 318.806C291.252 315.725 280.161 306.026 272.271 305.114C274.694 302.089 275.225 302.757 277.597 300.775C276.891 295.11 277.6 288.972 277.597 283.249C278.937 283.022 283.92 279.285 285.271 278.277L285.966 278.277C286.278 281.548 285.975 291.362 285.966 295.065Z"/><path fill="#474444" transform="scale(2 2)" d="M285.271 278.277C286.56 281.209 285.615 291.456 285.966 295.065C283.871 296.584 278.99 299.271 277.597 300.775C276.891 295.11 277.6 288.972 277.597 283.249C278.937 283.022 283.92 279.285 285.271 278.277Z"/><path fill="#DFDFDF" transform="scale(2 2)" d="M416.474 220.508C419.516 220.406 430.912 228.516 432.11 231.016C429.166 234.844 419.916 239.538 415.411 241.915C411.517 238.642 403.545 234.587 400.012 231.553C398.871 228.442 413.891 221.458 416.474 220.508Z"/><path fill="#C9B256" transform="scale(2 2)" d="M409.538 231.016C410.173 223.008 428.667 224.674 423.532 233.247C419.815 236.098 410.706 237.297 409.538 231.016Z"/><path fill="#AE9A49" transform="scale(2 2)" d="M409.538 231.016C414.613 230.782 420.437 229.59 423.532 233.247C419.815 236.098 410.706 237.297 409.538 231.016Z"/><path fill="#E8D14C" transform="scale(2 2)" d="M295.77 293.226L295.994 293.328C298.93 294.697 314.584 301.531 309.886 304.56C308.27 304.784 294.547 296.068 294.173 295.041C294.421 294.192 295.065 293.817 295.77 293.226Z"/><path fill="#E8D14C" transform="scale(2 2)" d="M301.26 289.686C302.864 290.209 321.168 300.838 314.386 300.775C311.724 300.132 299.774 292.329 299.592 291.1C300 290.355 300.53 290.138 301.26 289.686Z"/><path fill="#E8D14C" transform="scale(2 2)" d="M289.94 296.908C290.071 296.924 309.589 304.632 303.987 307.974C301.895 306.991 289.288 299.915 288.143 298.599C288.488 297.811 289.214 297.433 289.94 296.908Z"/><path fill="#E8D14C" transform="scale(2 2)" d="M293.873 308.91C291.371 307.278 284.294 303.727 283.455 301.402C284.428 297.9 295.312 306.019 297.524 307.209C302.718 309.644 298.73 311.582 293.873 308.91Z"/><path fill="#778595" transform="scale(2 2)" d="M272.271 305.114C280.161 306.026 291.252 315.725 298.342 318.806C298.746 318.456 298.675 318.564 298.969 318.131C298.734 326.184 298.973 334.806 298.977 342.932L298.952 413.881C298.947 416.596 298.79 424.629 299.319 426.845C294.842 429.135 279.961 417.587 275.245 414.721C270.495 411.834 272.264 397.082 272.263 391.656L272.271 354.341C272.535 353.202 272.325 344.902 272.271 343.52C272.475 332.918 270.845 314.611 272.271 305.114Z"/><path fill="#3C4657" transform="scale(2 2)" d="M278.406 401.349C282.48 403.619 295.486 410.282 293.873 414.105C291.632 413.382 275.036 405.497 278.406 401.349Z"/><path fill="#CED7DD" transform="scale(2 2)" d="M401.653 291.341C418.41 290.242 411.111 314.453 406.3 322.981C401.085 332.227 395.005 336.007 386.328 341.342L355.352 360.312C350.58 363.243 343.774 368.149 338.483 369.506C332.206 369.963 327.995 366.009 327.359 359.841C325.666 343.411 337.191 328.909 350.423 320.788C361.132 314.02 390.807 292.746 401.653 291.341Z"/><path fill="#387AC1" transform="scale(2 2)" d="M397.159 300.775L397.219 301.037C394.419 303.791 387.955 316.355 385.898 320.235C389.248 322.03 393.751 325.01 397.159 327.048C394.712 328.509 391.843 330.026 389.328 331.426C385.832 329.56 383.027 327.886 379.746 325.711C379.729 328.953 380.972 336.803 378.555 339.232C377.285 340.056 375.4 341.045 374.042 341.81C374.588 332.994 373.895 323.994 374.042 315.148C376.128 313.675 377.442 312.836 379.746 311.785L379.746 322.188C386.861 312.664 385.688 305.548 397.159 300.775Z"/><path fill="#DC5452" transform="scale(2 2)" d="M368.517 320.235L368.872 320.555C367.981 329.304 369.603 333.34 365.103 341.908C363.019 345.875 359.14 352.913 354.628 354.471C353.544 354.331 354.09 353.013 353.535 352.871C345.633 350.84 346.405 346.443 346.494 338.375L346.494 333.042C348.043 331.843 349.376 330.85 351.266 330.244C351.28 333.693 348.807 354.435 358.894 345.096C364.401 339.997 363.67 330.087 363.608 323.008C365.359 321.447 366.386 321.094 368.517 320.235Z"/><path fill="#474444" transform="scale(2 2)" d="M191.604 89.1267C205.646 80.2471 220.158 71.6593 234.76 63.7636C259.188 49.9689 257.861 53.9874 279.687 66.8168C289.688 71.4233 285.968 88.1891 285.969 98.2802L285.974 145.703C285.975 148.173 286.131 152.016 285.966 154.337C284.187 154.96 279.407 157.863 277.597 158.936L277.609 122.386C277.61 119.143 277.922 99.6532 277.104 97.5612C276.074 97.3844 274.716 97.6549 273.837 98.177L124.886 188.054C118.181 192.131 108.405 196.764 102.497 201.697C102.123 216.38 102.497 232.985 102.496 247.798L102.495 401.057C102.496 411.948 102.336 422.971 102.727 433.856C103.245 448.288 118.494 435.981 124.359 432.403L260.82 350.155C263.97 348.247 269.016 345 272.271 343.52C272.325 344.902 272.535 353.202 272.271 354.341L125.843 442.395C117.715 447.252 106.958 456.84 98.0328 451.454C89.301 446.185 76.0146 441.823 72.0476 432.817C70.8185 428.04 71.1386 421.312 71.1389 416.244L71.1431 198.566C71.126 177.536 69.4978 168.803 86.5435 153.419C91.3093 149.947 99.3432 145.418 104.614 142.293C108.713 139.189 116.989 134.641 121.741 131.604C123.422 130.4 127.16 128.277 129.069 127.105L146.007 116.781C160.983 107.627 176.476 97.957 191.604 89.1267ZM244.64 98.9555C244.597 100.711 243.439 107.659 246.381 106.903C252.152 103.93 263.961 96.5405 268.953 92.5664C270.851 91.055 273.574 82.8697 269.479 83.4626C261.909 87.7205 251.68 93.7565 244.64 98.9555ZM234.9 113.401C238.74 111.388 244.619 103.649 239.667 101.443L238.728 101.487C234.49 103.698 228.969 112.419 233.81 113.667L234.9 113.401ZM140.545 162.797C136.75 165.883 134.065 173.534 140.545 171.498C148.655 166.723 146.269 155.651 140.545 162.797ZM114.491 178.567C116.315 177.597 116.682 177.804 118.85 177.981L119.08 177.345C118.223 175.146 115.821 176.369 114.491 177.345L114.491 178.567Z"/><defs><linearGradient id="gradient_0" gradientUnits="userSpaceOnUse" x1="52.54314" y1="303.78244" x2="123.03458" y2="292.99146"><stop offset="0" stop-color="#6A6566"/><stop offset="1" stop-color="#5E6D79"/></linearGradient></defs><path fill="url(#gradient_0)" transform="scale(2 2)" d="M104.614 142.293C106.784 146.437 120.115 150.368 121.741 153.419C118.709 154.933 108.795 160.264 106.748 162.509L106.694 162.797C106.195 164.219 105.862 164.856 105.177 166.157C100.871 170.62 96.7799 177.144 94.9013 183.078C94.5327 184.556 94.2066 185.782 94.0056 187.294C93.393 195.602 93.6175 204.905 93.6164 213.33L93.623 371.549C93.6224 394.568 94.1737 420.302 93.0495 443.066C90.3417 440.985 74.4262 429.978 72.0476 432.817C70.8185 428.04 71.1386 421.312 71.1389 416.244L71.1431 198.566C71.126 177.536 69.4978 168.803 86.5435 153.419C91.3093 149.947 99.3432 145.418 104.614 142.293Z"/><path fill="#83858C" transform="scale(2 2)" d="M104.614 142.293C106.784 146.437 120.115 150.368 121.741 153.419C118.709 154.933 108.795 160.264 106.748 162.509L106.694 162.797C106.133 163.301 105.343 164.164 104.614 164.224C103.849 163.977 87.0771 153.918 86.5435 153.419C91.3093 149.947 99.3432 145.418 104.614 142.293Z"/><path fill="#83858C" transform="scale(2 2)" d="M106.694 162.797C106.195 164.219 105.862 164.856 105.177 166.157C100.871 170.62 96.7799 177.144 94.9013 183.078C93.5034 182.257 93.409 182.227 91.8193 182.185C93.5393 176.102 98.6814 166.915 104.614 164.224C105.343 164.164 106.133 163.301 106.694 162.797Z"/><path fill="#778595" transform="scale(2 2)" d="M91.8193 182.185C93.409 182.227 93.5034 182.257 94.9013 183.078C94.5327 184.556 94.2066 185.782 94.0056 187.294L93.7769 186.314C92.3182 184.923 91.0771 188.004 91.8193 182.185Z"/><path fill="#282A2F" transform="scale(2 2)" d="M79.2123 217.013C82.1873 217.184 85.5221 219.901 85.5463 222.911C85.5836 227.55 87.0658 250.509 84.0906 252.105C74.5952 250.494 77.6124 235.552 77.4665 228.067C77.394 224.351 76.1075 218.958 79.2123 217.013Z"/><path fill="#282A2F" transform="scale(2 2)" d="M80.4383 201.697C83.8034 202.283 86.558 206.753 84.0906 209.828C80.8988 208.654 76.7909 204.6 80.4383 201.697Z"/><defs><linearGradient id="gradient_1" gradientUnits="userSpaceOnUse" x1="194.49294" y1="160.2832" x2="188.5545" y2="59.549164"><stop offset="0" stop-color="#60616A"/><stop offset="1" stop-color="#768390"/></linearGradient></defs><path fill="url(#gradient_1)" transform="scale(2 2)" d="M191.604 89.1267C205.646 80.2471 220.158 71.6593 234.76 63.7636C259.188 49.9689 257.861 53.9874 279.687 66.8168C269.332 67.3889 264.592 71.8394 255.972 77.0226L131.455 151.752C127.051 154.332 108.567 165.709 105.177 166.157C105.862 164.856 106.195 164.219 106.694 162.797L106.748 162.509C108.795 160.264 118.709 154.933 121.741 153.419C120.115 150.368 106.784 146.437 104.614 142.293C108.713 139.189 116.989 134.641 121.741 131.604C123.422 130.4 127.16 128.277 129.069 127.105L146.007 116.781C160.983 107.627 176.476 97.957 191.604 89.1267Z"/><path fill="#3C4E57" transform="scale(2 2)" d="M121.741 131.604C123.422 130.4 127.16 128.277 129.069 127.105L146.007 116.781C160.983 107.627 176.476 97.957 191.604 89.1267C195.871 92.5605 206.018 97.1631 211.228 100.151C203.123 105.126 194.998 109.565 186.904 114.398L149.535 136.955C140.365 142.37 130.739 147.803 121.741 153.419L121.741 153.419C120.115 150.368 106.784 146.437 104.614 142.293C108.713 139.189 116.989 134.641 121.741 131.604Z"/><path fill="#778595" transform="scale(2 2)" d="M104.614 142.293C108.713 139.189 116.989 134.641 121.741 131.604C121.744 138.096 121.429 147.172 121.741 153.419L121.741 153.419C120.115 150.368 106.784 146.437 104.614 142.293Z"/><path fill="#282A2F" transform="scale(2 2)" d="M203.263 121.933C206.856 122.463 204.541 129.143 202.139 130.781C195.963 134.992 178.484 146.945 171.556 149.317C170.98 149.277 170.184 148.986 170.03 148.379C168.357 141.807 173.488 139.278 178.083 136.68C185.491 132.493 195.839 125.003 203.263 121.933Z"/><path fill="#DC5452" transform="scale(2 2)" d="M119.08 177.345C119.747 180.801 117.464 184.778 114.491 186.469C109.906 190.542 107.712 182.135 114.491 177.345L114.491 178.567C116.315 177.597 116.682 177.804 118.85 177.981L119.08 177.345Z"/><path fill="#F56866" transform="scale(2 2)" d="M119.08 177.345C119.747 180.801 117.464 184.778 114.491 186.469C114.266 185.767 114.494 179.695 114.491 178.567C116.315 177.597 116.682 177.804 118.85 177.981L119.08 177.345Z"/><path fill="#E8D14C" transform="scale(2 2)" d="M129.604 168.232C136.26 168.294 129.618 177.725 126.882 179.666C121.839 179.947 125.313 170.629 129.604 168.232Z"/><path fill="#CED7DD" transform="scale(2 2)" d="M320.478 134.19C325.014 135.581 330.272 138.209 331.15 143.405C331.6 146.065 332.63 175.41 331.774 177.345C331.522 188.764 324.289 188.943 315.554 194.655C306.003 200.9 295.43 206.796 285.966 213.014C285.982 214.962 286.098 217.905 285.966 219.775L285.966 223.482L285.966 223.482C284.803 224.093 279.069 227.502 278.406 228.269L277.734 228.623L277.45 228.324L277.597 226.596L277.597 226.596C277.353 223.118 277.278 221.585 277.597 218.106C260.524 226.714 241.065 240.409 224.272 250.347C221.753 251.835 218.689 253.792 215.993 254.809C212.018 253.238 207.526 249.309 203.263 247.48C203.249 244.446 203.158 240.976 203.263 237.979C205.956 235.744 211.855 233.398 215.241 230.422L216.514 229.822C216.496 226.212 216.45 222.563 216.514 218.956C216.38 216.525 216.462 215.468 215.993 213.014C211.912 208.355 208.309 208.152 204.168 204.746C207.162 202.564 210.549 200.633 213.717 198.67L230.309 188.518C238.304 183.729 272.322 164.174 277.597 158.936C279.407 157.863 284.187 154.96 285.966 154.337C288.752 154.035 311.94 135.914 320.478 134.19Z"/><defs><linearGradient id="gradient_2" gradientUnits="userSpaceOnUse" x1="273.2702" y1="222.39099" x2="263.15506" y2="204.1756"><stop offset="0" stop-color="#99A1AE"/><stop offset="1" stop-color="#C8C8CB"/></linearGradient></defs><path fill="url(#gradient_2)" transform="scale(2 2)" d="M331.774 176.412C331.203 172.283 331.496 173.615 331.774 177.345C331.522 188.764 324.289 188.943 315.554 194.655C306.003 200.9 295.43 206.796 285.966 213.014C285.982 214.962 286.098 217.905 285.966 219.775L285.966 223.482L285.966 223.482C284.803 224.093 279.069 227.502 278.406 228.269L277.734 228.623L277.45 228.324L277.597 226.596L277.597 226.596C277.353 223.118 277.278 221.585 277.597 218.106C260.524 226.714 241.065 240.409 224.272 250.347C221.753 251.835 218.689 253.792 215.993 254.809C212.018 253.238 207.526 249.309 203.263 247.48C203.249 244.446 203.158 240.976 203.263 237.979C205.956 235.744 211.855 233.398 215.241 230.422L216.514 229.822C218.179 253.49 210.758 254.281 233.373 240.31L312.289 190.755C320.448 185.582 325.781 184.348 331.774 176.412Z"/><path fill="#474444" transform="scale(2 2)" d="M277.597 218.106C279.763 216.524 283.559 214.4 285.966 213.014C285.804 215.281 285.665 217.521 285.966 219.775L285.966 223.482L285.966 223.482C284.803 224.093 279.069 227.502 278.406 228.269L277.734 228.623L277.45 228.324L277.597 226.596C277.691 224.078 277.554 220.781 277.597 218.106Z"/><path fill="#5A697B" transform="scale(2 2)" d="M273.616 188.933C274.496 187.421 275.208 187.974 276.443 188.933L277.597 189.411C279.878 191.884 276.878 196.16 275.226 196.636C275.353 195.464 279.314 191.201 276.474 190.593C273.158 193.789 275.235 197.716 269.479 200.267C269.578 197.662 269.875 194.914 270.002 192.25L269.744 192.017L268.771 192.266L268.527 192.118C269.295 191.242 272.46 189.354 273.616 188.933L273.616 188.933Z"/><path fill="#F4EDEA" transform="scale(2 2)" d="M273.616 188.933C275.02 189.213 274.844 190.104 275.115 191.432C274.307 193.353 273.045 196.802 271.625 198.158L271.174 198.146C270.448 196.787 270.902 193.138 271.023 191.432C272.045 190.593 272.875 190.027 273.616 188.933L273.616 188.933Z"/><path fill="#3C4E57" transform="scale(2 2)" d="M244.64 206.993C248.909 208.959 245.363 215.993 242.444 218.106C238.787 217.566 240.414 209.269 244.64 206.993Z"/><path fill="#F4EDEA" transform="scale(2 2)" d="M244.64 208.325C248.002 209.649 244.318 215.711 242.444 217.013L241.921 216.815C240.351 213.679 241.637 209.856 244.64 208.325Z"/><path fill="#3C4E57" transform="scale(2 2)" d="M314.386 164.224C319.898 164.379 315.584 172.372 313.663 174.378C312.815 174.968 312.674 175.113 311.715 175.428L311.496 175.167C311.509 170.97 310.015 166.286 314.386 164.224Z"/><path fill="#F4EDEA" transform="scale(2 2)" d="M314.386 164.928C317.962 165.29 315.569 171.501 313.663 173.338C311.698 173.776 310.99 166.738 314.386 164.928Z"/><path fill="#5A697B" transform="scale(2 2)" d="M302.717 171.498L303.038 171.715C304.38 173.68 302.253 175.911 301.988 177.427C301.922 177.799 303.4 179.568 303.264 180.618L302.848 180.857C301.809 180.19 302.13 179.169 300.909 178.409L300.518 178.567C300.409 184.854 299.215 181.926 299.298 177.356C299.373 173.227 298.877 172.842 302.717 171.498Z"/><path fill="#F4EDEA" transform="scale(2 2)" d="M301.26 172.568C303.205 173.498 302.169 175.994 301.26 177.345C299.447 176.502 300.091 173.694 301.26 172.568Z"/><path fill="#5A697B" transform="scale(2 2)" d="M266.524 192.726C270.8 193.601 265.944 198.967 264.576 200.267C264.642 201.366 264.594 202.541 264.576 203.648C264.413 203.822 264.116 204.007 263.908 204.154L263.576 203.932C263.337 202.295 263.568 196.579 263.601 194.531C264.561 193.853 265.512 193.318 266.524 192.726Z"/><path fill="#F4EDEA" transform="scale(2 2)" d="M266.524 194.531C269.014 194.887 265.294 198.748 264.576 199.348L264.343 199.137C263.803 196.849 264.446 195.386 266.524 194.531Z"/><path fill="#5A697B" transform="scale(2 2)" d="M307.591 168.232L308.029 168.521C308.537 170.038 309.782 175.151 309.871 176.653L309.439 176.812C308.039 175.286 307.109 175.56 305.529 177.345L305.113 178.755L304.696 179.003L304.93 179.118L304.712 179.435L304.523 179.302C304.803 177.129 306.241 169.748 307.591 168.232Z"/><path fill="#F4EDEA" transform="scale(2 2)" d="M307.591 170.407L307.848 170.665C308.153 171.737 308.585 173.93 308.329 175.012L306.551 175.473L306.126 175.544C305.745 174.563 307.166 171.465 307.591 170.407Z"/><path fill="#5A697B" transform="scale(2 2)" d="M261.986 195.733C262.074 197.619 260.511 197.794 259.014 198.25C259.129 202.491 258.437 201.538 261.621 200.673C262.413 202.224 257.281 203.052 259.344 205.781C260.148 205.7 261.219 205.107 261.986 204.746L262.17 204.799L262.039 205.187C260.05 206.362 259.338 206.667 257.773 208.325C258.336 204.617 258.294 201.97 258.265 198.25C258.397 198.031 261.517 196.039 261.986 195.733Z"/><path fill="#3C4E57" transform="scale(2 2)" d="M255.505 199.348C257.782 200.979 256.343 209.86 252.313 211.487C249.723 211.198 251.464 205.357 251.735 203.648C251.707 202.855 251.738 202.899 252.075 202.165C252.82 203.617 249.701 211.099 253.871 209.959C256.478 207.558 255.117 202.376 255.505 199.348Z"/><defs><linearGradient id="gradient_3" gradientUnits="userSpaceOnUse" x1="287.62564" y1="183.39949" x2="286.09753" y2="190.57402"><stop offset="0" stop-color="#596570"/><stop offset="1" stop-color="#7C909D"/></linearGradient></defs><path fill="url(#gradient_3)" transform="scale(2 2)" d="M285.271 182.185C285.457 182.44 285.75 182.887 285.966 183.078L286.231 185.087L286.538 185.294C287.186 185.061 287.691 184.893 288.351 184.7L288.481 185.105L288.155 185.542C286.636 186.123 285.97 186.575 286.391 188.335L286.791 188.541C287.883 188.046 288.822 187.705 289.94 187.294C289.169 188.294 286.827 190.74 285.642 191.087L285.211 190.847C284.99 189.957 285.348 184.049 285.271 182.185Z"/><path fill="#3C4E57" transform="scale(2 2)" d="M234.391 220.508C235.975 217.984 236.67 211.645 239.115 210.661L239.042 211.031C238.307 214.865 239.496 217.939 237.879 220.76C237.295 219.043 238.544 214.973 238.728 213.014C237.152 215.594 236.074 217.72 234.9 220.508L234.391 220.508Z"/><defs><linearGradient id="gradient_4" gradientUnits="userSpaceOnUse" x1="298.7561" y1="181.77019" x2="294.24463" y2="176.69966"><stop offset="0" stop-color="#59727F"/><stop offset="1" stop-color="#798796"/></linearGradient></defs><path fill="url(#gradient_4)" transform="scale(2 2)" d="M297.524 174.378L297.74 174.598C296.296 178.386 298.349 184.655 295.77 184.433C295.576 182.645 295.866 178.212 295.514 177.141L294.62 176.883L294.468 176.501C295.17 175.64 296.524 174.97 297.524 174.378Z"/><path fill="#5A697B" transform="scale(2 2)" d="M233.773 224.479C233.448 222.827 231.683 214.926 233.112 213.793C234.598 214.88 233.201 218.726 234.391 220.508L234.9 220.508C234.508 221.584 234.4 222.849 233.773 224.479Z"/><path fill="#778595" transform="scale(2 2)" d="M280.241 192.726C280.14 191.037 279.419 183.868 281.555 183.693C281.758 184.912 281.293 190.911 281.299 192.726L280.241 192.726Z"/><path fill="#3C4E57" transform="scale(2 2)" d="M289.94 178.567L290.254 178.771C290.898 180.271 290.739 185.408 290.733 187.294C291.885 186.527 293.074 184.988 293.842 184.888L293.873 185.526L289.94 188.933C289.971 187.15 289.484 179.319 289.94 178.567Z"/><path fill="#3C4E57" transform="scale(2 2)" d="M248.227 204.746C250.11 205.508 249.121 213.148 248.227 214.661L247.915 214.498C247.808 214.213 248.115 205.192 248.227 204.746Z"/><path fill="#3C4E57" transform="scale(2 2)" d="M281.299 192.726C282.9 191.72 284.116 191.128 285.966 190.615C284.501 191.549 280.424 195.146 280.241 192.726L281.299 192.726Z"/><path fill="#778595" transform="scale(2 2)" d="M279.687 184.433C279.281 185.306 277.801 189.058 277.597 189.411L276.443 188.933C277.279 186.958 278.281 185.993 279.687 184.433Z"/><path fill="#3C4E57" transform="scale(2 2)" d="M285.271 182.185C289.956 177.894 286.113 182.563 285.966 183.078C285.75 182.887 285.457 182.44 285.271 182.185Z"/><path fill="#F4EDEA" transform="scale(2 2)" d="M285.966 223.482C287.832 223.436 313.53 205.88 319.411 204.746C323.471 206.029 325.387 208.123 328.939 209.828C329.799 210.545 330.604 211.165 331.35 212.002C332.22 219.842 332.236 235.654 331.452 243.527C330.616 251.916 324.122 254.147 317.768 258.037L298.278 270.113C294.35 272.552 289.33 275.282 285.966 278.277L285.271 278.277C283.92 279.285 278.937 283.022 277.597 283.249C275.569 283.752 269.667 289.123 267.305 290.703C258.793 296.396 224.66 319.205 216.514 320.898C213.11 319.152 206.538 315.121 203.263 312.982C203.119 310.844 203.368 307.167 203.263 304.56C206.31 302.468 212.745 299.144 215.241 296.908C215.067 296.193 215.239 287.112 215.241 285.541C215.62 284.763 216.08 284.001 216.514 283.249L216.64 283.014C216.645 281.613 216.153 281.074 215.241 280.049C211.986 276.75 207.278 274.895 203.263 272.36C225.771 260.11 247.3 245.413 269.512 232.841C273.484 230.593 277.172 230.675 277.597 226.596L277.597 226.596L277.45 228.324L277.734 228.623L278.406 228.269C279.069 227.502 284.803 224.093 285.966 223.482L285.966 223.482Z"/><path fill="#DFDFDF" transform="scale(2 2)" d="M285.966 223.482C286.14 227.376 286.218 230.099 285.966 234.02C283.385 235.921 280.828 237.306 278.406 239.362C267.638 244.072 250.577 255.444 240.682 261.898C234.181 266.138 218.212 272.885 215.241 280.049C211.986 276.75 207.278 274.895 203.263 272.36C225.771 260.11 247.3 245.413 269.512 232.841C273.484 230.593 277.172 230.675 277.597 226.596L277.597 226.596L277.45 228.324L277.734 228.623L278.406 228.269C279.069 227.502 284.803 224.093 285.966 223.482Z"/><path fill="#83858C" transform="scale(2 2)" d="M285.966 223.482C286.14 227.376 286.218 230.099 285.966 234.02C283.385 235.921 280.828 237.306 278.406 239.362C278.492 238.236 278.545 229.233 278.406 228.269C279.069 227.502 284.803 224.093 285.966 223.482Z"/><path fill="#DFDFDF" transform="scale(2 2)" d="M285.966 223.482C287.832 223.436 313.53 205.88 319.411 204.746C323.471 206.029 325.387 208.123 328.939 209.828C323.664 211.265 316.64 215.708 311.848 218.59L296.865 227.53C293.023 229.853 290 231.895 285.966 234.02C286.218 230.099 286.14 227.376 285.966 223.482L285.966 223.482Z"/><defs><linearGradient id="gradient_5" gradientUnits="userSpaceOnUse" x1="209.1991" y1="318.70029" x2="211.39325" y2="296.54379"><stop offset="0" stop-color="#9F9EA3"/><stop offset="1" stop-color="#D4D7D8"/></linearGradient></defs><path fill="url(#gradient_5)" transform="scale(2 2)" d="M215.241 296.908L216.514 296.908L216.43 312.446C216.41 314.764 216 318.782 216.514 320.898C213.11 319.152 206.538 315.121 203.263 312.982C203.119 310.844 203.368 307.167 203.263 304.56C206.31 302.468 212.745 299.144 215.241 296.908Z"/><path fill="#3C4E57" transform="scale(2 2)" d="M215.241 285.541C215.62 284.763 216.08 284.001 216.514 283.249C216.468 287.8 216.499 292.356 216.514 296.908L215.241 296.908C215.067 296.193 215.239 287.112 215.241 285.541Z"/><path fill="#DC5452" transform="scale(2 2)" d="M244.64 267.302C254.4 266.414 252.431 276.71 252.738 283.161C253.135 291.489 245.833 292.77 240.135 296.908C239.473 297.288 235.692 299.774 235.484 297.875C234.283 286.884 232.635 272.614 244.64 267.302Z"/><path fill="#F4EDEA" transform="scale(2 2)" d="M244.64 268.546C249.433 268.127 249.983 269.428 251.735 273.736C247.703 276.054 243.853 278.198 240.135 280.998C238.596 281.929 237.29 283.049 235.892 284.178C236.041 277.008 238.103 272.015 244.64 268.546Z"/><path fill="#A0AFC5" transform="scale(2 2)" d="M256.298 276.63C256.264 275.139 256.031 270.964 257.32 270.107C266.507 263.998 276.73 258.846 286.162 253.028C288.637 251.501 289.204 250.368 289.267 253.899L289.267 256.042C290.349 256.133 289.996 255.893 290.543 256.503L290.733 257.36C289.376 258.126 288.313 258.777 287.011 259.635C282.211 262.575 276.628 264.978 272.271 268.546C266.951 271.185 262.211 275.063 256.71 277.502L256.387 277.373L256.298 276.63Z"/><path fill="#ECDCBD" transform="scale(2 2)" d="M289.267 256.042C290.349 256.133 289.996 255.893 290.543 256.503L290.733 257.36C289.376 258.126 288.313 258.777 287.011 259.635C282.211 262.575 276.628 264.978 272.271 268.546C272.657 267.251 276.086 265.523 277.243 264.867C275.681 265.385 273.256 266.957 271.966 266.773C273.449 265.727 280.216 262.773 281.299 260.637L281.299 260.637L282.823 259.635C284.782 258.452 284.85 258.327 287.011 257.36C287.191 257.042 287.74 256.365 287.986 256.042L287.986 256.042L289.267 256.042Z"/><path fill="#C9B256" transform="scale(2 2)" d="M289.267 256.042C290.349 256.133 289.996 255.893 290.543 256.503L290.733 257.36C289.376 258.126 288.313 258.777 287.011 259.635L286.99 259.244C287.961 257.9 288.135 257.645 287.986 256.042L289.267 256.042Z"/><path fill="#AE9A49" transform="scale(2 2)" d="M287.011 257.36L287.079 257.845C286.254 258.672 282.74 261.203 281.636 261.072L281.299 260.637L282.823 259.635C284.782 258.452 284.85 258.327 287.011 257.36Z"/><path fill="#83858C" transform="scale(2 2)" d="M271.023 266.773L271.966 266.773C267.559 269.554 262.385 272.386 257.773 275.244L257.356 274.833C257.805 271.991 267.518 267.305 271.023 266.773Z"/><path fill="#AE9A49" transform="scale(2 2)" d="M280.241 260.637L281.299 260.637C280.216 262.773 273.449 265.727 271.966 266.773L271.966 266.773L271.023 266.773C273.209 265.153 274.045 264.501 276.443 263.13C277.966 262.47 278.927 261.642 280.241 260.637Z"/><path fill="#CED7DD" transform="scale(2 2)" d="M282.823 259.635C283.85 258.032 286.066 256.253 287.986 256.042C287.74 256.365 287.191 257.042 287.011 257.36C284.85 258.327 284.782 258.452 282.823 259.635Z"/><path fill="#DFDFDF" transform="scale(2 2)" d="M276.443 263.13C276.931 261.633 278.67 260.576 280.241 260.637C278.927 261.642 277.966 262.47 276.443 263.13Z"/><path fill="#83858C" transform="scale(2 2)" d="M289.267 253.899L305.032 244.435C307.311 243.062 311.369 240.449 313.663 239.362L313.663 243.109C307.494 247.758 297.638 252.847 290.733 257.36L290.543 256.503C289.996 255.893 290.349 256.133 289.267 256.042L289.267 253.899Z"/><path fill="#83858C" transform="scale(2 2)" d="M204.168 204.746C208.309 208.152 211.912 208.355 215.993 213.014C216.462 215.468 216.38 216.525 216.514 218.956C216.45 222.563 216.496 226.212 216.514 229.822L215.241 230.422C211.855 233.398 205.956 235.744 203.263 237.979C195.571 242.045 188.035 247.674 180.186 251.715C166.781 258.618 152.35 288.327 161.987 301.917C168.995 303.6 171.79 301.989 177.71 298.522C180.678 296.783 202.295 284.179 203.041 282.597C204.501 279.504 201.893 275.212 203.263 272.36C207.278 274.895 211.986 276.75 215.241 280.049C216.153 281.074 216.645 281.613 216.64 283.014L216.514 283.249C216.08 284.001 215.62 284.763 215.241 285.541C215.239 287.112 215.067 296.193 215.241 296.908C212.745 299.144 206.31 302.468 203.263 304.56C188.481 312.131 168.015 332.195 153.003 315.148C122.708 304 151.755 250.619 169.937 236.657C175.388 232.47 196.821 219.94 203.263 217.013C203.781 212.937 203.207 209.054 204.168 204.746Z"/><defs><linearGradient id="gradient_6" gradientUnits="userSpaceOnUse" x1="222.28648" y1="252.25287" x2="135.72382" y2="266.94827"><stop offset="0" stop-color="#BCBFC7"/><stop offset="1" stop-color="#D6E2EE"/></linearGradient></defs><path fill="url(#gradient_6)" transform="scale(2 2)" d="M204.168 204.746C208.309 208.152 211.912 208.355 215.993 213.014C216.462 215.468 216.38 216.525 216.514 218.956L216.277 218.577C215.467 218.409 215.393 218.616 214.472 218.956C204.054 224.187 185.448 236.054 175.177 242.781C159.025 255.165 143.397 286.924 149.926 307.702C150.825 310.563 152.198 312.803 153.003 315.148C122.708 304 151.755 250.619 169.937 236.657C175.388 232.47 196.821 219.94 203.263 217.013C203.781 212.937 203.207 209.054 204.168 204.746Z"/><path fill="#CED7DD" transform="scale(2 2)" d="M161.987 301.917C168.995 303.6 171.79 301.989 177.71 298.522C180.678 296.783 202.295 284.179 203.041 282.597C204.501 279.504 201.893 275.212 203.263 272.36C207.278 274.895 211.986 276.75 215.241 280.049C216.153 281.074 216.645 281.613 216.64 283.014L216.514 283.249C216.08 284.001 215.62 284.763 215.241 285.541C211.113 288.524 206.257 290.623 201.937 293.308C193.375 298.63 169.713 317.415 161.987 301.917Z"/><path fill="#3C4E57" transform="scale(2 2)" d="M214.472 218.956C215.393 218.616 215.467 218.409 216.277 218.577L216.514 218.956C216.45 222.563 216.496 226.212 216.514 229.822L215.241 230.422C214.639 228.517 215.87 222.26 214.472 218.956Z"/></svg>